ffmpeg version N-76868-gef9f7bb Copyright (c) 2000-2015 the FFmpeg developers
  built with gcc 4.8 (Ubuntu 4.8.4-2ubuntu1~14.04)
  configuration: --prefix=/home/juice/ffmpeg_build --pkg-config-flags=--static --extra-cflags=-I/home/juice/ffmpeg_build/include --extra-ldflags=-L/home/juice/ffmpeg_build/lib --bindir=/home/juice/bin --enable-gpl --enable-libass --enable-libfdk-aac --enable-libfreetype --enable-libmp3lame --enable-libopus --enable-libtheora --enable-libvorbis --enable-libvpx --enable-libx264 --enable-libx265 --enable-nonfree
  libavutil      55.  9.100 / 55.  9.100
  libavcodec     57. 16.100 / 57. 16.100
  libavformat    57. 19.100 / 57. 19.100
  libavdevice    57.  0.100 / 57.  0.100
  libavfilter     6. 15.100 /  6. 15.100
  libswscale      4.  0.100 /  4.  0.100
  libswresample   2.  0.101 /  2.  0.101
  libpostproc    54.  0.100 / 54.  0.100
Input #0, mov,mp4,m4a,3gp,3g2,mj2, from '/var/www/html/assets/videogallery/video.mp4':
  Metadata:
    major_brand     : avc1
    minor_version   : 0
    compatible_brands: isomavc1
    creation_time   : 2010-07-29 21:56:16
  Duration: 00:00:05.00, start: 0.000000, bitrate: 413 kb/s
    Stream #0:0(und): Video: h264 (Constrained Baseline) (avc1 / 0x31637661), yuv420p, 480x488 [SAR 1:1 DAR 60:61], 411 kb/s, 24 fps, 24 tbr, 24 tbn, 48 tbc (default)
    Metadata:
      creation_time   : 2010-07-29 21:56:16
      handler_name    : GPAC ISO Video Handler
[libx264 @ 0x312f460] using SAR=1/1
[libx264 @ 0x312f460] using cpu capabilities: MMX2 SSE2Fast SSSE3 SSE4.2 AVX
[libx264 @ 0x312f460] profile High, level 3.0
[libx264 @ 0x312f460] 264 - core 142 r2389 956c8d8 - H.264/MPEG-4 AVC codec - Copyleft 2003-2014 - http://www.videolan.org/x264.html - options: cabac=1 ref=3 deblock=1:0:0 analyse=0x3:0x113 me=hex subme=7 psy=1 psy_rd=1.00:0.00 mixed_ref=1 me_range=16 chroma_me=1 trellis=1 8x8dct=1 cqm=0 deadzone=21,11 fast_pskip=1 chroma_qp_offset=-2 threads=3 lookahead_threads=1 sliced_threads=0 nr=0 decimate=1 interlaced=0 bluray_compat=0 constrained_intra=0 bframes=3 b_pyramid=2 b_adapt=1 b_bias=0 direct=1 weightb=1 open_gop=0 weightp=2 keyint=250 keyint_min=24 scenecut=40 intra_refresh=0 rc_lookahead=40 rc=crf mbtree=1 crf=23.0 qcomp=0.60 qpmin=0 qpmax=69 qpstep=4 ip_ratio=1.40 aq=1:1.00
Output #0, matroska, to '/var/www/html/assets/videogallery/video.mkv':
  Metadata:
    major_brand     : avc1
    minor_version   : 0
    compatible_brands: isomavc1
    encoder         : Lavf57.19.100
    Stream #0:0(und): Video: h264 (libx264) (H264 / 0x34363248), yuv420p, 480x488 [SAR 1:1 DAR 60:61], q=-1--1, 24 fps, 1k tbn, 24 tbc (default)
    Metadata:
      creation_time   : 2010-07-29 21:56:16
      handler_name    : GPAC ISO Video Handler
      encoder         : Lavc57.16.100 libx264
Stream mapping:
  Stream #0:0 -> #0:0 (h264 (native) -> h264 (libx264))
Press [q] to stop, [?] for help
frame=   79 fps=0.0 q=28.0 size=      34kB time=00:00:01.24 bitrate= 224.0kbits/s    frame=  117 fps=116 q=28.0 size=      98kB time=00:00:02.83 bitrate= 282.6kbits/s    frame=  120 fps= 79 q=-1.0 Lsize=     164kB time=00:00:04.91 bitrate= 273.0kbits/s    
video:162kB audio:0kB subtitle:0kB other streams:0kB global headers:0kB muxing overhead: 1.077802%
[libx264 @ 0x312f460] frame I:1     Avg QP:14.61  size:  3546
[libx264 @ 0x312f460] frame P:75    Avg QP:25.34  size:  1733
[libx264 @ 0x312f460] frame B:44    Avg QP:27.90  size:   722
[libx264 @ 0x312f460] consecutive B-frames: 40.8% 28.3%  7.5% 23.3%
[libx264 @ 0x312f460] mb I  I16..4: 66.3% 21.6% 12.0%
[libx264 @ 0x312f460] mb P  I16..4:  3.2%  3.7%  0.7%  P16..4: 18.4%  5.0%  1.4%  0.0%  0.0%    skip:67.7%
[libx264 @ 0x312f460] mb B  I16..4:  0.5%  0.2%  0.1%  B16..8: 20.5%  2.2%  0.4%  direct: 0.4%  skip:75.8%  L0:49.8% L1:47.1% BI: 3.1%
[libx264 @ 0x312f460] 8x8 transform intra:43.3% inter:53.1%
[libx264 @ 0x312f460] coded y,uvDC,uvAC intra: 14.7% 26.4% 16.0% inter: 3.3% 5.6% 2.2%
[libx264 @ 0x312f460] i16 v,h,dc,p: 49% 35%  2% 13%
[libx264 @ 0x312f460] i8 v,h,dc,ddl,ddr,vr,hd,vl,hu: 30% 16% 42%  1%  3%  3%  2%  2%  1%
[libx264 @ 0x312f460] i4 v,h,dc,ddl,ddr,vr,hd,vl,hu: 28% 26% 28%  3%  4%  3%  3%  3%  2%
[libx264 @ 0x312f460] i8c dc,h,v,p: 55% 19% 22%  5%
[libx264 @ 0x312f460] Weighted P-Frames: Y:0.0% UV:0.0%
[libx264 @ 0x312f460] ref P L0: 77.6%  6.5% 12.3%  3.6%
[libx264 @ 0x312f460] ref B L0: 85.8% 12.2%  2.0%
[libx264 @ 0x312f460] ref B L1: 97.5%  2.5%
[libx264 @ 0x312f460] kb/s:264.48
